<svg width="77" height="73" viewBox="0 0 77 73" fill="none" xmlns="http://www.w3.org/2000/svg">
<path d="M55.0527 10.48C55.0527 10.48 53.5193 10.48 50.4527 10.48C47.386 10.48 43.5327 10.48 38.8927 10.48C34.2527 10.48 30.4927 11.0267 27.6127 12.12C24.7327 13.2 21.9993 14.7867 19.4127 16.88C16.8127 18.96 14.7393 21.2933 13.1927 23.88C11.646 26.4533 10.7793 29.3333 10.5927 32.52C10.4193 35.72 11.0127 38.8267 12.3727 41.84C13.746 44.8533 15.5327 47.58 17.7327 50.02C19.9327 52.4733 22.4327 54.9467 25.2327 57.44C28.0327 59.9333 31.3127 61.3067 35.0727 61.56C38.8327 61.8267 42.046 60.9667 44.7127 58.98C47.3793 56.9933 49.7993 54.86 51.9727 52.58C54.1327 50.3 56.3327 48.12 58.5727 46.04C60.8127 43.96 62.5727 41.54 63.8527 38.78C65.1327 36.02 65.7727 33.0467 65.7727 29.86C65.786 26.66 65.2593 23.6 64.1927 20.68C63.126 17.7467 60.6727 15.04 56.8327 12.56C53.006 10.08 50.9927 8.57333 50.7927 8.04C50.5793 7.52 50.4593 6.97333 50.4327 6.4C50.406 5.84 50.4727 5.29333 50.6327 4.76C50.7793 4.21333 51.0127 3.70667 51.3327 3.24C51.6527 2.77333 52.0393 2.37333 52.4927 2.04C52.946 1.69333 53.446 1.43333 53.9927 1.26C54.526 1.07333 55.0727 0.986667 55.6327 1C56.1927 1 56.7393 1.09333 57.2727 1.28C57.8193 1.46667 58.3127 1.73333 58.7527 2.08C59.206 2.42667 59.586 2.83333 59.8927 3.3C60.2127 3.76667 60.446 4.27333 60.5927 4.82C60.7393 5.35333 60.7993 5.90667 60.7727 6.48C60.7327 7.04 60.606 7.58 60.3927 8.1C60.1793 8.63333 59.8927 9.11333 59.5327 9.54C59.1593 9.96667 58.726 10.3267 58.2327 10.62C57.7527 10.9133 57.2327 11.1133 56.6727 11.22C56.126 11.34 55.5727 11.3667 55.0127 11.3C54.4527 11.2467 53.9193 11.0933 53.4127 10.84C52.8927 10.6 52.4327 10.2867 52.0327 9.9C51.6193 9.51333 51.2793 9.06667 51.0127 8.56C50.7593 8.05333 50.586 7.52 50.4927 6.96C50.3993 6.4 50.406 5.84 50.5127 5.28C50.606 4.73333 50.786 4.21333 51.0527 3.72C51.3193 3.22667 51.6593 2.78667 52.0727 2.4C52.486 2.01333 52.9527 1.7 53.4727 1.46C53.9793 1.22 54.5127 1.07333 55.0727 1.02C55.6327 0.966667 56.186 1 56.7327 1.12C57.2927 1.25333 57.8127 1.46667 58.2927 1.76C58.7727 2.05333 59.1993 2.41333 59.5727 2.84C59.9327 3.28 60.1127 3.5 60.1127 3.5C60.1127 3.5 61.1593 4.08 63.2527 5.24C65.346 6.38667 67.746 8.5 70.4527 11.58C73.146 14.66 74.7927 17.68 75.3927 20.64C75.9927 23.6 76.2927 26.6933 76.2927 29.92C76.2793 33.1467 76.1193 36.3667 75.8127 39.58C75.5193 42.7933 73.9727 45.7733 71.1727 48.52C68.3727 51.2533 65.686 53.7067 63.1127 55.88C60.5527 58.04 58.0727 60.48 55.6727 63.2C53.286 65.92 50.1793 68.14 46.3527 69.86C42.526 71.5933 39.166 72.4067 36.2727 72.3C33.3793 72.1933 30.5527 71.78 27.7927 71.06C25.046 70.3267 22.5327 69.0333 20.2527 67.18C17.986 65.3267 15.8593 63.38 13.8727 61.34C11.886 59.3 9.67267 56.6133 7.23267 53.28C4.77934 49.9467 2.93934 46.46 1.71267 42.82C0.472674 39.1933 -0.0939934 35.8867 0.0126733 32.9C0.11934 29.9133 0.526008 26.9933 1.23267 24.14C1.95267 21.3 3.22601 18.7067 5.05267 16.36C6.89267 14.0267 9.53267 11.48 12.9727 8.72C16.426 5.98667 20.446 3.84667 25.0327 2.3C29.6193 0.766666 34.2393 0 38.8927 0C43.5327 0 47.386 0 50.4527 0C53.5193 0 55.2593 0.0266666 55.6727 0.0799999C56.086 0.12 56.4927 0.22 56.8927 0.38C57.2927 0.526666 57.666 0.72 58.0127 0.96C58.3593 1.2 58.6727 1.48 58.9527 1.8C59.2327 2.10667 59.466 2.44667 59.6527 2.82C59.8527 3.19333 60.006 3.58667 60.1127 4C60.206 4.41333 60.2527 4.82667 60.2527 5.24C60.2527 5.65333 60.206 6.06667 60.1127 6.48C60.006 6.89333 59.8527 7.28667 59.6527 7.66C59.466 8.03333 59.2327 8.37333 58.9527 8.68C58.6727 9 58.3593 9.28 58.0127 9.52C57.666 9.76 57.2927 9.95333 56.8927 10.1C56.4927 10.26 56.086 10.36 55.6727 10.4C55.2593 10.4533 55.0527 10.48 55.0527 10.48Z" fill="#846358"/>
<path d="M30.1219 21.3705C30.1219 21.3705 30.4619 21.2772 31.1419 21.0905C31.8353 20.8905 32.9086 20.4705 34.3619 19.8305C35.8153 19.1772 37.3553 18.4972 38.9819 17.7905C40.6086 17.0705 42.4953 16.7905 44.6419 16.9505C46.7886 17.1105 47.9619 17.1705 48.1619 17.1305C48.3753 17.1038 48.5886 17.0972 48.8019 17.1105C49.0153 17.1238 49.2219 17.1638 49.4219 17.2305C49.6219 17.2972 49.8086 17.3905 49.9819 17.5105C50.1686 17.6172 50.3353 17.7438 50.4819 17.8905C50.6153 18.0505 50.7353 18.2238 50.8419 18.4105C50.9486 18.5838 51.0353 18.7705 51.1019 18.9705C51.1553 19.1838 51.1886 19.3905 51.2019 19.5905C51.2153 19.8038 51.2019 20.0172 51.1619 20.2305C51.1086 20.4305 51.0419 20.6305 50.9619 20.8305C50.8686 21.0172 50.7553 21.1905 50.6219 21.3505C50.4886 21.5238 50.3353 21.6705 50.1619 21.7905C50.0019 21.9238 49.8219 22.0305 49.6219 22.1105C49.4353 22.1905 49.2553 22.2438 49.0819 22.2705C48.9219 22.3105 48.7019 22.3172 48.4219 22.2905C48.1286 22.2772 47.8553 22.2172 47.6019 22.1105C47.3353 22.0038 47.0953 21.8572 46.8819 21.6705C46.6686 21.4705 46.4953 21.2505 46.3619 21.0105C46.2153 20.7705 46.1153 20.5105 46.0619 20.2305C45.9953 19.9505 45.9819 19.6705 46.0219 19.3905C46.0619 19.1105 46.1419 18.8438 46.2619 18.5905C46.3819 18.3372 46.5419 18.1038 46.7419 17.8905C46.9419 17.6905 47.1686 17.5305 47.4219 17.4105C47.6753 17.2772 47.9419 17.1905 48.2219 17.1505C48.5019 17.1105 48.7819 17.1172 49.0619 17.1705C49.3419 17.2105 49.6019 17.3038 49.8419 17.4505C50.0953 17.5838 50.3153 17.7505 50.5019 17.9505C50.7019 18.1638 50.8553 18.4038 50.9619 18.6705C51.0819 18.9238 51.1553 19.1905 51.1819 19.4705C51.2086 19.7505 51.1886 20.0305 51.1219 20.3105C51.0553 20.5905 50.9486 20.8505 50.8019 21.0905C50.6419 21.3305 50.4553 21.5372 50.2419 21.7105C50.0286 21.8972 49.7886 22.0372 49.5219 22.1305C49.2553 22.2372 48.9819 22.2972 48.7019 22.3105C48.4086 22.3105 48.1286 22.2705 47.8619 22.1905C47.5953 22.1105 47.3419 21.9905 47.1019 21.8305C46.8753 21.6705 46.6753 21.4772 46.5019 21.2505C46.3419 21.0238 46.2153 20.7705 46.1219 20.4905C46.0419 20.2238 46.0019 19.9505 46.0019 19.6705C46.0019 19.3905 46.0553 19.1172 46.1619 18.8505C46.2553 18.5838 46.3886 18.3372 46.5619 18.1105C46.7353 17.8838 46.9419 17.6972 47.1819 17.5505C47.4219 17.3905 47.5953 17.2905 47.7019 17.2505C47.8086 17.2105 47.9619 17.1705 48.1619 17.1305C48.3753 17.1038 48.5886 17.0972 48.8019 17.1105C49.0153 17.1238 49.2219 17.1638 49.4219 17.2305C49.6219 17.2972 49.8086 17.3905 49.9819 17.5105C50.1553 17.6172 50.3153 17.7438 50.4619 17.8905C50.6086 18.0505 50.7353 18.2238 50.8419 18.4105C50.9486 18.5838 51.0353 18.7705 51.1019 18.9705C51.1553 19.1838 51.1886 19.3905 51.2019 19.5905C51.2153 19.8038 51.2019 20.0172 51.1619 20.2305C51.1086 20.4305 51.0419 20.6305 50.9619 20.8305C50.8686 21.0172 50.7553 21.1905 50.6219 21.3505C50.4886 21.5238 50.3353 21.6705 50.1619 21.7905C50.0019 21.9238 49.8219 22.0305 49.6219 22.1105C49.4353 22.1905 48.2353 22.1838 46.0219 22.0905C43.8086 21.9838 41.9286 22.2372 40.3819 22.8505C38.8353 23.4638 37.3286 24.1038 35.8619 24.7705C34.4086 25.4505 33.3286 25.8972 32.6219 26.1105C31.9153 26.3105 31.4553 26.4238 31.2419 26.4505C31.0286 26.4905 30.8286 26.4972 30.6419 26.4705C30.4286 26.4572 30.2219 26.4172 30.0219 26.3505C29.8219 26.2838 29.6286 26.1905 29.4419 26.0705C29.2686 25.9638 29.1086 25.8305 28.9619 25.6705C28.8153 25.5238 28.6886 25.3572 28.5819 25.1705C28.4753 24.9972 28.3953 24.8038 28.3419 24.5905C28.2886 24.3905 28.2553 24.1838 28.2419 23.9705C28.2419 23.7705 28.2619 23.5705 28.3019 23.3705C28.3419 23.1572 28.4086 22.9572 28.5019 22.7705C28.5953 22.5838 28.7086 22.4105 28.8419 22.2505C28.9753 22.0772 29.1286 21.9305 29.3019 21.8105C29.4619 21.6905 29.6419 21.5838 29.8419 21.4905C30.0286 21.4105 30.1219 21.3705 30.1219 21.3705Z" fill="#A18072"/>
<path d="M31.1619 43.1834C31.1619 43.1834 31.5619 43.2367 32.3619 43.3434C33.1619 43.4367 34.3419 43.5167 35.9019 43.5834C37.4753 43.65 38.9553 43.4234 40.3419 42.9034C41.7153 42.3834 43.7686 42.37 46.5019 42.8634C49.2353 43.37 50.6619 43.75 50.7819 44.0034C50.9153 44.2434 51.0019 44.5034 51.0419 44.7834C51.0819 45.0767 51.0819 45.3567 51.0419 45.6234C50.9886 45.89 50.8953 46.15 50.7619 46.4034C50.6286 46.6567 50.4553 46.8767 50.2419 47.0634C50.0286 47.25 49.7953 47.4034 49.5419 47.5234C49.2886 47.6434 49.0153 47.7167 48.7219 47.7434C48.4419 47.77 48.1686 47.75 47.9019 47.6834C47.6219 47.6167 47.3619 47.51 47.1219 47.3634C46.8819 47.2167 46.6686 47.03 46.4819 46.8034C46.3086 46.59 46.1686 46.35 46.0619 46.0834C45.9686 45.83 45.9153 45.5634 45.9019 45.2834C45.8886 45.0034 45.9219 44.7234 46.0019 44.4434C46.0819 44.1767 46.2019 43.93 46.3619 43.7034C46.5219 43.4634 46.7153 43.2567 46.9419 43.0834C47.1686 42.9234 47.4153 42.7967 47.6819 42.7034C47.9619 42.6234 48.2419 42.5834 48.5219 42.5834C48.8019 42.5834 49.0753 42.63 49.3419 42.7234C49.6086 42.83 49.8553 42.97 50.0819 43.1434C50.3086 43.3167 50.4953 43.5167 50.6419 43.7434C50.8019 43.9834 50.9219 44.2434 51.0019 44.5234C51.0686 44.79 51.0886 45.07 51.0619 45.3634C51.0486 45.6434 50.9886 45.9034 50.8819 46.1434C50.7753 46.41 50.6286 46.65 50.4419 46.8634C50.2553 47.0767 50.0353 47.2567 49.7819 47.4034C49.5419 47.5367 49.2819 47.6367 49.0019 47.7034C48.7219 47.7567 48.4419 47.7634 48.1619 47.7234C47.8819 47.6967 47.6153 47.6234 47.3619 47.5034C47.1086 47.37 46.8819 47.21 46.6819 47.0234C46.4819 46.8234 46.3819 46.7234 46.3819 46.7234C46.3819 46.7234 45.6419 46.71 44.1619 46.6834C42.6819 46.67 41.1486 47.0367 39.5619 47.7834C37.9753 48.5434 36.4686 48.8834 35.0419 48.8034C33.6153 48.7234 32.5019 48.63 31.7019 48.5234C30.9153 48.43 30.4219 48.3567 30.2219 48.3034C30.0086 48.25 29.8153 48.1767 29.6419 48.0834C29.4553 47.9767 29.2819 47.8567 29.1219 47.7234C28.9619 47.5767 28.8219 47.4167 28.7019 47.2434C28.5819 47.07 28.4819 46.8834 28.4019 46.6834C28.3353 46.4834 28.2886 46.2834 28.2619 46.0834C28.2353 45.8834 28.2353 45.6767 28.2619 45.4634C28.2886 45.2634 28.3419 45.0634 28.4219 44.8634C28.4886 44.6634 28.5819 44.4767 28.7019 44.3034C28.8353 44.13 28.9753 43.9767 29.1219 43.8434C29.2819 43.6967 29.4553 43.5767 29.6419 43.4834C29.8286 43.39 30.0286 43.3167 30.2419 43.2634C30.4419 43.21 30.6419 43.1834 30.8419 43.1834C31.0553 43.1834 31.1619 43.1834 31.1619 43.1834Z" fill="#A18072"/>
</svg>
